:SAMPLES-PER-SECOND 30
:FULLY-SPECIFIED
:DEGREES
448
root  -5.90373 40.9502 0.22702 171.753 -83.8325 -170.637
RightUpLeg  3.85145 -0.987641 -0.969402
RightLeg  -4.5508 -16.4686 1.68207
RightFoot  0.81763 -0.355014 3.3833
RightToes  -3.11842e-008 1.75238e-005 3.56266e-009
Spine  0.936541 -3.88198 -9.91948
Spine1  -7.61227 -5.1109 13.4797
HEad  3.00315 -3.94011 11.3687
LeftShoulder1  1.43231 -3.92965 -12.1335
LeftArm  -45.078 -36.9599 -31.0532
LeftForeArm  127.382 -69.3208 -148.804
LeftHand  0.169941 -5.33453 -1.50515
RightShoulder  0.956202 1.43672 12.325
RightArm  -48.2684 25.1901 24.9615
RightForeArm  111.685 65.5474 152.373
RightHand  -0.0320449 8.84198 -0.673233
LeftUpLeg  5.47078 2.22117 3.55209
LeftLeg  -3.8297 19.1335 -1.59877
LeftFoot  -0.950476 0.347599 -3.76068
LeftToes  4.78904e-008 1.4679e-008 1.35657e-009
449
root  -5.82871 40.9518 0.408965 172.626 -82.2172 -171.536
RightUpLeg  3.48395 -0.650653 -0.964482
RightLeg  -4.44827 -15.3008 1.24751
RightFoot  1.20826 -0.392491 3.64339
RightToes  -3.11842e-008 1.75238e-005 3.56266e-009
Spine  1.85877 -4.54633 -11.8095
Spine1  -7.96191 -6.14165 16.8068
HEad  3.26346 -3.83845 12.4135
LeftShoulder1  1.24414 -3.39601 -10.8055
LeftArm  -46.6864 -38.4643 -32.6279
LeftForeArm  126.612 -70.3465 -146.957
LeftHand  0.0280082 -4.33751 -0.0716535
RightShoulder  0.795083 0.762305 11.567
RightArm  -49.3044 26.9419 25.9134
RightForeArm  109.679 66.843 150.51
RightHand  -0.222313 8.36139 -2.22742
LeftUpLeg  5.54121 2.19063 3.32347
LeftLeg  -3.79417 20.7126 -1.70907
LeftFoot  -1.12688 0.34264 -3.75798
LeftToes  4.78904e-008 1.4679e-008 1.35657e-009
450
root  -5.79378 40.9414 0.584424 173.704 -80.2478 -172.908
RightUpLeg  3.05295 -0.554418 -1.1163
RightLeg  -3.58946 -13.4877 0.738364
RightFoot  1.17104 -0.424574 3.94332
RightToes  -3.11842e-008 1.75238e-005 3.56266e-009
Spine  1.97055 -4.87421 -12.7079
Spine1  -6.90012 -6.88039 18.6753
HEad  3.24974 -3.63517 13.1217
LeftShoulder1  1.3966 -3.79571 -12.0229
LeftArm  -47.0938 -37.5328 -31.986
LeftForeArm  126.195 -69.2761 -148.647
LeftHand  0.109075 -4.17693 -1.05466
RightShoulder  0.846117 0.896292 12.2235
RightArm  -48.8851 26.6961 26.5438
RightForeArm  111.364 65.6739 152.169
RightHand  -0.36935 9.42867 -3.29183
LeftUpLeg  6.11648 2.26662 3.05075
LeftLeg  -3.97494 22.6229 -1.9926
LeftFoot  -1.2778 0.311758 -3.45466
LeftToes  4.78904e-008 1.4679e-008 1.35657e-009
451
root  -5.77769 40.9257 0.747352 173.712 -78.4149 -173.348
RightUpLeg  2.96788 -0.483488 -1.21062
RightLeg  -3.06211 -11.7499 0.437505
RightFoot  1.18935 -0.435679 4.04001
RightToes  -3.11842e-008 1.75238e-005 3.56266e-009
Spine  1.44818 -5.22424 -12.6911
Spine1  -4.64881 -7.71024 19.3613
HEad  1.97236 -2.40052 12.3193
LeftShoulder1  1.53198 -3.78247 -14.1114
LeftArm  -44.5323 -34.0087 -32.6089
LeftForeArm  129.201 -65.7401 -153.736
LeftHand  0.24314 -4.83165 -2.45341
RightShoulder  0.9063 0.931994 13.5227
RightArm  -45.8634 24.9126 28.1195
RightForeArm  113.687 62.3498 155.946
RightHand  -0.271618 8.68711 -2.61236
LeftUpLeg  6.55962 2.51725 2.94513
LeftLeg  -3.53242 24.1261 -2.07428
LeftFoot  -1.73366 0.301346 -3.46126
LeftToes  4.78904e-008 1.4679e-008 1.35657e-009
452
root  -5.79833 40.9114 0.889164 174.192 -76.8546 -174.13
RightUpLeg  2.89345 -0.450276 -1.39186
RightLeg  -2.69198 -10.1647 0.126426
RightFoot  1.17191 -0.465581 4.31667
RightToes  -3.11842e-008 1.75238e-005 3.56266e-009
Spine  1.10295 -5.50245 -11.9284
Spine1  -3.22431 -8.20211 18.929
HEad  1.75041 -1.84539 12.3081
LeftShoulder1  1.66323 -3.85823 -15.8019
LeftArm  -39.3788 -26.9122 -35.5196
LeftForeArm  133.184 -60.6103 -159.096
LeftHand  0.671 -6.74115 -5.98092
RightShoulder  1.06518 1.3468 15.2739
RightArm  -40.1451 20.1092 30.4625
RightForeArm  116.416 57.0069 160.524
RightHand  -0.130837 8.82675 -1.46789
LeftUpLeg  7.04456 2.34848 2.51702
LeftLeg  -3.52472 25.8859 -2.02764
LeftFoot  -1.92723 0.285176 -3.32354
LeftToes  4.78904e-008 1.4679e-008 1.35657e-009
453
root  -5.8379 40.9025 0.985253 173.955 -75.6971 -174.155
RightUpLeg  3.09077 -0.371151 -1.38243
RightLeg  -2.75628 -9.08208 -0.0382053
RightFoot  1.30358 -0.471627 4.33398
RightToes  -3.11842e-008 1.75238e-005 3.56266e-009
Spine  0.032283 -5.6736 -11.3868
Spine1  -0.450223 -8.77609 18.6749
HEad  0.0755836 -1.09617 10.8403
LeftShoulder1  1.93242 -4.09425 -18.912
LeftArm  -34.1267 -19.7004 -36.1244
LeftForeArm  136.467 -55.82 -162.65
LeftHand  1.23393 -8.92499 -9.61685
RightShoulder  1.24749 1.63716 17.6397
RightArm  -33.8146 15.0162 30.9512
RightForeArm  119.48 51.9349 163.759
RightHand  -0.0178141 9.82385 -0.490151
LeftUpLeg  7.50584 2.28588 2.32385
LeftLeg  -3.5598 27.1513 -2.00377
LeftFoot  -2.09875 0.286906 -3.39268
LeftToes  4.78904e-008 1.4679e-008 1.35657e-009
454
root  -5.88197 40.885 1.06033 173.252 -74.7248 -173.778
RightUpLeg  3.45059 -0.171957 -1.23354
RightLeg  -2.89513 -8.30907 -0.196498
RightFoot  1.38128 -0.483019 4.41427
RightToes  -3.11842e-008 1.75238e-005 3.56266e-009
Spine  -1.14138 -5.98512 -10.4368
Spine1  2.34999 -9.3422 17.4999
HEad  -1.59095 -0.134133 10.4154
LeftShoulder1  1.99091 -3.99193 -20.1186
LeftArm  -30.1725 -14.096 -36.8486
LeftForeArm  142.647 -52.0701 -165.125
LeftHand  1.40137 -9.52833 -10.4083
RightShoulder  1.70257 2.90693 20.2667
RightArm  -29.2346 10.6027 28.8474
RightForeArm  123.588 48.6227 165.585
RightHand  0.389082 9.34209 2.62874
LeftUpLeg  8.00865 2.3646 2.3021
LeftLeg  -3.49392 28.0446 -1.93408
LeftFoot  -2.33467 0.275386 -3.32318
LeftToes  4.78904e-008 1.4679e-008 1.35657e-009
455
root  -5.88907 40.8671 1.12452 172.561 -73.8766 -173.443
RightUpLeg  3.65565 -0.0550169 -1.1158
RightLeg  -2.7392 -7.54328 -0.31312
RightFoot  1.39237 -0.486829 4.44518
RightToes  -3.11842e-008 1.75238e-005 3.56266e-009
Spine  -1.56371 -6.17419 -9.90707
Spine1  4.09742 -9.74825 16.9568
HEad  -3.30271 0.982736 9.94563
LeftShoulder1  1.88763 -3.5537 -20.3027
LeftArm  -30.5667 -12.4526 -36.4084
LeftForeArm  148.171 -50.6285 -166.167
LeftHand  1.81954 -10.8009 -12.5444
RightShoulder  1.71223 2.91026 20.3311
RightArm  -26.4938 10.6572 29.2965
RightForeArm  131.299 48.094 166.212
RightHand  0.461425 10.1958 3.01685
LeftUpLeg  8.4621 2.41817 2.28494
LeftLeg  -3.41097 28.8538 -1.81779
LeftFoot  -2.52812 0.267418 -3.27254
LeftToes  4.78904e-008 1.4679e-008 1.35657e-009
456
root  -5.88162 40.8629 1.17725 172.48 -73.2207 -173.489
RightUpLeg  3.57356 -0.0235417 -1.12652
RightLeg  -2.54574 -6.88882 -0.390466
RightFoot  1.43786 -0.502789 4.57423
RightToes  -3.11842e-008 1.75238e-005 3.56266e-009
Spine  -1.73558 -6.00655 -9.50743
Spine1  4.24779 -9.52087 16.5192
HEad  -3.10016 1.17257 9.71056
LeftShoulder1  1.7812 -3.3651 -19.4468
LeftArm  -32.4036 -14.9412 -35.7265
LeftForeArm  150.667 -51.3461 -166.004
LeftHand  1.73409 -10.1867 -12.4136
RightShoulder  1.45241 2.22626 18.9524
RightArm  -27.0473 13.84 30.1705
RightForeArm  132.474 49.259 165.767
RightHand  0.335382 10.2663 2.05798
LeftUpLeg  8.65582 2.31795 2.12597
LeftLeg  -3.46523 29.6416 -1.74042
LeftFoot  -2.55377 0.26442 -3.25645
LeftToes  4.78904e-008 1.4679e-008 1.35657e-009
457
root  -5.86339 40.8729 1.21661 172.786 -72.5692 -173.674
RightUpLeg  3.24093 0.0240127 -1.14672
RightLeg  -2.45809 -6.31953 -0.434925
RightFoot  1.67947 -0.509508 4.56212
RightToes  -3.11842e-008 1.75238e-005 3.56266e-009
Spine  -1.4314 -5.45747 -8.79085
Spine1  2.61924 -8.5646 15.7267
HEad  -0.234496 0.991635 10.2769
LeftShoulder1  1.78266 -3.65353 -18.3275
LeftArm  -35.4164 -19.5853 -34.152
LeftForeArm  146.909 -53.9521 -164.445
LeftHand  1.45253 -9.46734 -10.8994
RightShoulder  1.51312 2.70087 17.8336
RightArm  -32.4464 16.8816 28.4382
RightForeArm  126.206 51.1143 164.527
RightHand  0.0802598 9.43547 0.225439
LeftUpLeg  8.57764 2.20321 1.9746
LeftLeg  -3.56658 30.444 -1.7631
LeftFoot  -2.481 0.264487 -3.27704
LeftToes  4.78904e-008 1.4679e-008 1.35657e-009
